<svg width="254" height="85" fill="none" xmlns="http://www.w3.org/2000/svg"><g clip-path="url(#a)"><path d="M100.479 33.135v4.616c-6.426-.91-10.127 2.47-10.127 8.584v15.477h-5.385V33.135h4.735l.65 4.357c.971-2.992 3.895-4.617 7.4-4.617 1.04 0 2.077.13 2.727.26ZM133.463 33.135v28.677h-5.064v-5.073c-1.88 3.446-5.972 5.854-11.033 5.854-7.918 0-13.567-5.984-13.567-15.022s5.776-15.282 13.958-15.282c4.866 0 8.762 2.081 10.769 5.462l.454-4.616h4.483Zm-5.517 14.176c0-6.243-3.763-10.146-9.28-10.146-5.517 0-9.35 4.162-9.35 10.276s3.698 10.276 9.218 10.276c5.519 0 9.412-4.097 9.412-10.403v-.003ZM144.519 33.135l3.377 9.038c1.814 4.746 5.126 13.914 5.126 13.914s3.505-9.36 5.323-13.914l3.567-9.038h5.648l-11.942 28.677h-5.385l-11.552-28.677h5.84-.002ZM184.516 62.593c-8.762 0-14.608-6.114-14.608-15.217 0-9.103 6.035-15.085 14.411-15.085s13.694 5.657 13.694 13.59c0 1.495-.062 2.406-.259 3.252h-22.523c.196 5.464 3.895 9.038 9.285 9.038 4.023 0 7.203-1.949 8.309-4.941h5.253c-1.295 5.657-6.812 9.365-13.562 9.365v-.002Zm8.043-17.363c-.063-5.138-3.44-8.39-8.309-8.39-5.126 0-8.763 3.252-8.952 8.39h17.261ZM230.035 44.057v17.755h-5.455V45.295c0-5.917-2.662-8.128-6.553-8.128-4.872 0-7.726 3.252-7.726 7.674v16.906h-5.385V33.135h4.476l.518 4.032c1.753-2.924 5.455-4.876 9.412-4.876 6.364 0 10.713 4.163 10.713 11.769v-.003Z" fill="#fff"/><path fill-rule="evenodd" clip-rule="evenodd" d="M63.586 31.479a15.445 15.445 0 0 0-9.964 3.629V15.923h-5.553V46.63c-.002.134-.01.269-.01.406 0 8.591 6.952 15.555 15.527 15.555s15.526-6.964 15.526-15.555c0-8.592-6.95-15.556-15.526-15.556Zm0 25.428c-5.442 0-9.854-4.42-9.854-9.872 0-5.453 4.412-9.872 9.854-9.872 5.442 0 9.854 4.419 9.854 9.872s-4.412 9.872-9.854 9.872Z" fill="#fff"/><path d="M254 32.344h-7.319V25.01h-5.404v7.334h-7.318v5.412h7.318v24.056h5.404V37.756H254v-5.412Z" fill="#fff"/><path fill-rule="evenodd" clip-rule="evenodd" d="M19.088 23.566c-1.468 0-2.897.165-4.272.48V15.78L0 0v61.812h19.088c10.543 0 19.089-8.563 19.089-19.125 0-10.561-8.546-19.124-19.089-19.124v.003Z" fill="#CBD600"/><path d="M128.393 81.756v-9.904h1.34v9.904h-1.34ZM138.402 74.943v6.782c0 .99-.315 1.783-.941 2.379-.626.598-1.47.896-2.528.896-.926 0-1.691-.24-2.298-.719-.607-.478-.966-1.136-1.079-1.97h1.264c.103.495.341.877.717 1.151.374.274.84.409 1.396.409.698 0 1.238-.19 1.619-.572.382-.383.571-.897.571-1.546v-1.437a2.466 2.466 0 0 1-1.002.92c-.432.222-.926.332-1.48.332-.638 0-1.2-.146-1.689-.44a2.92 2.92 0 0 1-1.125-1.213 3.77 3.77 0 0 1-.393-1.73c0-.64.134-1.236.4-1.762a2.986 2.986 0 0 1 1.142-1.235c.494-.298 1.065-.447 1.713-.447.566 0 1.062.115 1.487.348.427.234.758.556.995.966l.077-1.112h1.156-.002Zm-1.967 4.845c.405-.438.609-.98.609-1.63 0-.649-.201-1.192-.602-1.63-.401-.437-.931-.655-1.588-.655s-1.161.218-1.542.656c-.382.437-.571.988-.571 1.646 0 .659.192 1.204.578 1.63.386.427.897.641 1.535.641.638 0 1.175-.219 1.581-.656v-.002ZM145.759 75.474c.463.49.693 1.177.693 2.062v4.217h-1.295V77.83c0-1.288-.518-1.932-1.557-1.932-.566 0-1.012.17-1.341.51-.328.338-.494.778-.494 1.311v4.019h-1.281v-6.8h1.065l.123.957c.206-.35.511-.632.918-.84a2.817 2.817 0 0 1 1.32-.318c.77 0 1.388.245 1.851.733l-.002.005ZM149.861 72.994a.893.893 0 0 1-.679.278.897.897 0 0 1-.672-.271.913.913 0 0 1-.271-.673c0-.27.089-.473.271-.649a.922.922 0 0 1 .672-.262.93.93 0 0 1 .679.262.881.881 0 0 1 .261.649.93.93 0 0 1-.261.663v.003Zm4.025 1.946h4.056v6.813h-1.281v-5.748h-2.775v5.748h-1.281v-5.748h-2.775v5.748h-1.281V74.94h4.056v-1.807h1.281v1.807Zm4.101-3.292a.882.882 0 0 1 .262.649.946.946 0 0 1-.262.673.903.903 0 0 1-.678.271.926.926 0 0 1-.958-.944c0-.27.089-.474.272-.65a.937.937 0 0 1 .686-.261c.278 0 .503.087.678.262ZM165.392 75.474c.463.49.693 1.177.693 2.062v4.217h-1.295V77.83c0-1.288-.518-1.932-1.557-1.932-.566 0-1.012.17-1.341.51-.328.338-.494.778-.494 1.311v4.019h-1.281v-6.8h1.065l.123.957c.206-.35.51-.632.918-.84a2.816 2.816 0 0 1 1.319-.318c.77 0 1.389.245 1.852.733l-.002.005ZM174.659 74.943v6.782c0 .99-.314 1.783-.94 2.379-.626.598-1.47.896-2.528.896-.926 0-1.691-.24-2.298-.719-.607-.478-.967-1.136-1.079-1.97h1.264c.103.495.34.877.717 1.151.374.274.84.409 1.396.409.698 0 1.238-.19 1.619-.572.382-.383.571-.897.571-1.546v-1.437a2.462 2.462 0 0 1-1.003.92c-.431.222-.926.332-1.48.332-.638 0-1.199-.146-1.688-.44a2.914 2.914 0 0 1-1.125-1.213 3.757 3.757 0 0 1-.394-1.73c0-.64.135-1.236.401-1.762a2.986 2.986 0 0 1 1.142-1.235c.494-.298 1.065-.447 1.712-.447.566 0 1.063.115 1.488.348.426.234.758.556.995.966l.077-1.112h1.156-.003Zm-1.966 4.845c.405-.438.609-.98.609-1.63 0-.649-.202-1.192-.602-1.63-.401-.437-.931-.655-1.588-.655s-1.161.218-1.542.656c-.382.437-.571.988-.571 1.646 0 .659.192 1.204.578 1.63.386.427.897.641 1.535.641.638 0 1.175-.219 1.581-.656v-.002ZM180.503 81.756v-9.904h1.341v9.904h-1.341ZM189.311 75.474c.463.49.693 1.177.693 2.062v4.217h-1.295V77.83c0-1.288-.518-1.932-1.557-1.932-.566 0-1.012.17-1.341.51-.328.338-.494.778-.494 1.311v4.019h-1.281v-6.8h1.065l.122.957c.207-.35.511-.632.919-.84a2.816 2.816 0 0 1 1.319-.318c.77 0 1.389.245 1.852.733l-.002.005ZM197.344 75.474c.463.49.693 1.177.693 2.062v4.217h-1.295V77.83c0-1.288-.518-1.932-1.557-1.932-.566 0-1.012.17-1.341.51-.328.338-.494.778-.494 1.311v4.019h-1.281v-6.8h1.065l.123.957c.206-.35.511-.632.918-.84a2.817 2.817 0 0 1 1.32-.318c.77 0 1.388.245 1.851.733l-.002.005ZM200.105 76.517a3.427 3.427 0 0 1 1.295-1.298c.554-.32 1.188-.478 1.898-.478s1.343.161 1.904.478c.561.32.996.752 1.303 1.298.309.545.463 1.158.463 1.838 0 .68-.156 1.279-.471 1.824a3.428 3.428 0 0 1-1.302 1.29c-.554.316-1.187.472-1.897.472s-1.327-.156-1.881-.471a3.39 3.39 0 0 1-1.302-1.29 3.58 3.58 0 0 1-.47-1.825c0-.67.153-1.293.462-1.838h-.002Zm1.518 3.585c.437.464.996.695 1.675.695.678 0 1.266-.23 1.703-.695.436-.463.655-1.045.655-1.747 0-.701-.219-1.3-.655-1.768-.437-.469-1.005-.705-1.703-.705-.698 0-1.236.234-1.675.705-.436.468-.654 1.057-.654 1.768 0 .712.218 1.284.654 1.747ZM208.881 74.943l.801 2.148a299.073 299.073 0 0 1 1.219 3.307l.508-1.353c.247-.654.499-1.305.756-1.954l.849-2.148h1.341l-2.838 6.813h-1.281l-2.744-6.813h1.389ZM221.959 74.943v6.813h-1.204v-1.204c-.226.423-.574.76-1.041 1.012a3.28 3.28 0 0 1-1.581.377c-.628 0-1.185-.15-1.674-.447a3.035 3.035 0 0 1-1.142-1.26c-.274-.54-.408-1.16-.408-1.862 0-.702.142-1.358.425-1.908.283-.55.674-.976 1.173-1.276.499-.298 1.072-.447 1.719-.447.576 0 1.085.115 1.528.348.442.234.787.548 1.034.952l.108-1.096h1.065l-.002-.002Zm-1.929 5.169c.41-.447.617-1.048.617-1.8s-.204-1.314-.61-1.754c-.405-.438-.937-.656-1.595-.656-.657 0-1.218.223-1.619.673-.4.447-.602 1.038-.602 1.768s.202 1.322.602 1.769c.401.447.931.673 1.588.673s1.209-.224 1.619-.673ZM225.969 74.943h4.042v6.813h-1.281v-5.749h-2.761v5.749h-1.295v-5.749h-1.326v-1.064h1.326v-1.808h1.295v1.808Zm4.088-3.293a.881.881 0 0 1 .261.65.945.945 0 0 1-.261.672.905.905 0 0 1-.679.272.928.928 0 0 1-.957-.945c0-.269.089-.473.271-.649a.94.94 0 0 1 .686-.262c.278 0 .504.087.679.262ZM232.199 76.517a3.427 3.427 0 0 1 1.295-1.298c.554-.32 1.187-.478 1.897-.478s1.344.161 1.905.478c.561.32.995.752 1.302 1.298.307.545.463 1.158.463 1.838 0 .68-.156 1.279-.47 1.824a3.428 3.428 0 0 1-1.302 1.29c-.554.316-1.188.472-1.898.472s-1.326-.156-1.88-.471a3.4 3.4 0 0 1-1.303-1.29 3.59 3.59 0 0 1-.47-1.825c0-.67.154-1.293.463-1.838h-.002Zm1.518 3.585c.437.464.996.695 1.674.695.679 0 1.267-.23 1.703-.695.437-.463.655-1.045.655-1.747 0-.701-.218-1.3-.655-1.768-.436-.469-1.005-.705-1.703-.705-.698 0-1.235.234-1.674.705-.436.468-.655 1.057-.655 1.768 0 .712.219 1.284.655 1.747ZM245.987 75.474c.462.49.693 1.177.693 2.062v4.217h-1.296V77.83c0-1.288-.52-1.932-1.556-1.932-.566 0-1.012.17-1.341.51-.329.338-.494.778-.494 1.311v4.019h-1.281v-6.8h1.065l.122.957c.207-.35.511-.632.919-.84a2.805 2.805 0 0 1 1.319-.318c.77 0 1.389.245 1.852.733l-.002.005Z" fill="#CBD600"/></g><defs><clipPath id="a"><path fill="#fff" d="M0 0h254v85H0z"/></clipPath></defs></svg>