<svg width="260" height="149" fill="none" xmlns="http://www.w3.org/2000/svg"><path d="M60.185 48.47c.509 2.512.356 4.983-.458 7.412a19.736 19.736 0 0 1-3.678 6.629 24.146 24.146 0 0 1-5.805 5.1c-2.24 1.378-4.545 2.276-6.915 2.693l-.735.15-.168-.828a19.362 19.362 0 0 0 5.25-3.36 19.108 19.108 0 0 0 3.893-4.856 18.183 18.183 0 0 0 2.126-5.788c.411-2.06.406-4.132-.017-6.214a14.97 14.97 0 0 0-1.297-3.803c-.585-1.156-1.32-2.107-2.205-2.852-.884-.746-1.93-1.267-3.139-1.564-1.177-.303-2.516-.303-4.017.002-2.144.435-4.253 1.197-6.328 2.288a30.46 30.46 0 0 0-5.836 4.005 35.125 35.125 0 0 0-4.95 5.309 32.165 32.165 0 0 0-3.623 6.187 26.395 26.395 0 0 0-1.894 6.698c-.33 2.3-.27 4.567.184 6.802.484 2.39 1.24 4.388 2.268 5.997 1.053 1.572 2.294 2.899 3.725 3.98a18.555 18.555 0 0 0 4.806 2.469 45.882 45.882 0 0 0 5.52 1.51c1.925.376 3.872.698 5.84.969a98.2 98.2 0 0 1 5.886.958c1.925.375 3.762.863 5.51 1.465a17.302 17.302 0 0 1 4.741 2.387c1.443.983 2.675 2.263 3.697 3.841 1.046 1.542 1.802 3.461 2.268 5.758.51 2.512.442 4.853-.202 7.024-.613 2.165-1.628 4.077-3.045 5.736-1.411 1.689-3.136 3.091-5.174 4.206a22.086 22.086 0 0 1-6.493 2.417c-2.48.503-4.864.54-7.151.111a20.2 20.2 0 0 1-6.386-2.244 23.798 23.798 0 0 1-5.408-4.021 28.522 28.522 0 0 1-4.196-5.127l.614-.508a42.48 42.48 0 0 0 4.14 4.135 24.591 24.591 0 0 0 4.899 3.407 20.015 20.015 0 0 0 5.576 2.025c1.993.393 4.062.372 6.206-.063 1.745-.354 3.319-.928 4.72-1.722 1.401-.795 2.56-1.763 3.476-2.905a9.646 9.646 0 0 0 1.883-3.922c.37-1.478.381-3.074.033-4.789-.509-2.512-1.464-4.47-2.865-5.876-1.402-1.406-3.09-2.498-5.066-3.277-1.975-.78-4.161-1.34-6.559-1.683a451.345 451.345 0 0 0-7.375-.992 90.476 90.476 0 0 1-7.404-1.368c-2.447-.588-4.702-1.485-6.764-2.693-2.063-1.208-3.863-2.852-5.4-4.931-1.545-2.11-2.658-4.85-3.342-8.219-.62-3.063-.73-6.038-.327-8.925a29.138 29.138 0 0 1 2.386-8.28 32.375 32.375 0 0 1 4.696-7.267 39.327 39.327 0 0 1 6.373-6.075 39.814 39.814 0 0 1 7.645-4.516 37.956 37.956 0 0 1 8.386-2.753c2.052-.416 4.031-.563 5.937-.44 1.937.118 3.67.564 5.198 1.338 1.553.737 2.876 1.84 3.971 3.308 1.126 1.462 1.915 3.31 2.369 5.546Zm37.289 38.115a18.356 18.356 0 0 1-2.233 3.849 18.96 18.96 0 0 1-3.144 3.364 20.497 20.497 0 0 1-3.826 2.593 15.52 15.52 0 0 1-4.234 1.529c-2.083.422-4.084.54-6.002.356-1.913-.154-3.655-.646-5.226-1.475-1.571-.83-2.907-1.993-4.008-3.492-1.108-1.529-1.888-3.411-2.341-5.647-.448-2.205-.466-4.338-.055-6.398.436-2.097 1.215-3.993 2.338-5.688a16.288 16.288 0 0 1 4.364-4.424c1.762-1.219 3.745-2.051 5.95-2.499 1.042-.21 2.037-.253 2.988-.127.974.09 1.858.356 2.65.802a5.64 5.64 0 0 1 1.98 1.75c.567.746.958 1.655 1.176 2.727.26 1.286.23 2.472-.092 3.558a8.982 8.982 0 0 1-1.545 2.992 12.172 12.172 0 0 1-2.568 2.434 20.676 20.676 0 0 1-3.157 1.884 28.702 28.702 0 0 1-3.352 1.397 29.82 29.82 0 0 1-3.086.818l-1.103.223c.964 2.706 2.498 4.611 4.603 5.715 2.105 1.104 4.75 1.332 7.935.686a19.239 19.239 0 0 0 6.373-2.536 20.949 20.949 0 0 0 5.21-4.5l.405.109ZM72.53 85.76l1.148-.233a12.444 12.444 0 0 0 3.297-1.195 10.887 10.887 0 0 0 2.808-2.195 9.132 9.132 0 0 0 1.82-3.048c.408-1.135.481-2.346.22-3.632-.254-1.256-.74-2.241-1.46-2.956-.688-.721-1.691-.949-3.008-.681-1.347.273-2.412.92-3.194 1.939-.757.982-1.306 2.13-1.645 3.442a15.595 15.595 0 0 0-.532 3.982c.016 1.336.127 2.51.332 3.52l.214 1.057Zm47.806-2.235c-.57 2.22-1.622 4.108-3.156 5.662-1.54 1.524-3.443 2.516-5.71 2.976-1.868.379-3.652.15-5.352-.684-1.7-.835-3.303-2.057-4.809-3.664-1.475-1.614-2.844-3.49-4.106-5.625a72.511 72.511 0 0 1-3.364-6.683 77.82 77.82 0 0 1-2.5-6.667c-.668-2.192-1.17-4.115-1.505-5.77-.41-2.02-.753-4.263-1.03-6.726a69.077 69.077 0 0 1-.425-7.518c-.013-2.58.127-5.112.421-7.595.324-2.49.858-4.734 1.6-6.734.766-2.036 1.776-3.74 3.029-5.11 1.246-1.4 2.819-2.294 4.718-2.679 1.623-.329 3.036-.121 4.239.623 1.204.744 2.239 1.762 3.107 3.053a16.474 16.474 0 0 1 2.043 4.177c.531 1.519.921 2.89 1.169 4.115.671 3.308.934 6.65.79 10.028a45.528 45.528 0 0 1-1.38 9.702c-.776 3.091-1.847 5.987-3.212 8.687-1.372 2.67-2.956 5-4.752 6.99a76.866 76.866 0 0 0 2.736 5.711c1.004 1.805 2.09 3.386 3.258 4.744 1.162 1.327 2.391 2.353 3.686 3.079 1.319.689 2.699.887 4.138.595 1.44-.292 2.621-.834 3.544-1.627.924-.793 1.714-1.847 2.373-3.16l.45.1ZM95.661 59.02c.106.68.259 1.51.458 2.49.229.974.495 2.052.799 3.234.328 1.145.705 2.376 1.131 3.692a72.34 72.34 0 0 0 1.436 4.014 30.536 30.536 0 0 0 3.998-7.172 35.76 35.76 0 0 0 2.075-7.93c.39-2.79.496-5.65.317-8.578a62.17 62.17 0 0 0-1.174-9.089 35.514 35.514 0 0 0-.363-1.552 16.964 16.964 0 0 0-.557-2.04 18.957 18.957 0 0 0-.861-2.121 7.632 7.632 0 0 0-1.09-1.836c-.399-.556-.866-.972-1.4-1.246-.51-.311-1.07-.405-1.683-.28-1.164.235-2.072 1.025-2.724 2.37-.628 1.306-1.083 2.913-1.366 4.82-.252 1.9-.376 3.967-.37 6.197.037 2.225.135 4.357.294 6.398.152 2.01.341 3.805.566 5.385.225 1.581.396 2.662.514 3.244Zm44.461-1.987c-.451.602-1.102 1.244-1.952 1.927a43.122 43.122 0 0 1-2.937 2.03 65.344 65.344 0 0 1-3.607 2.023 67.003 67.003 0 0 1-3.828 1.877c.85 4.036 1.655 8.082 2.413 12.137a179.759 179.759 0 0 1 1.854 12.204c.514 4.104.834 8.2.962 12.288a85.045 85.045 0 0 1-.399 12.182l-1.149.233-9.467-46.675c-.74.278-1.426.513-2.057.704-.637.161-1.2.292-1.69.391a17.48 17.48 0 0 1-1.811.272 5.01 5.01 0 0 1-1.618-.198 3.371 3.371 0 0 1-1.28-.889c-.369-.403-.634-1.003-.796-1.8-.192-.949-.035-1.746.472-2.39.5-.676 1.195-1.104 2.083-1.284.888-.18 1.786-.315 2.692-.403a85.725 85.725 0 0 1 2.803-.33l-.028-.137a208.514 208.514 0 0 1-1.315-7.194 78.128 78.128 0 0 1-.822-8.06 53.868 53.868 0 0 1 .282-8.045c.293-2.642.936-5.053 1.929-7.231a16.51 16.51 0 0 1 4.296-5.702c1.846-1.586 4.255-2.68 7.226-3.283 1.562-.317 2.996-.321 4.302-.012a8.398 8.398 0 0 1 3.452 1.691c.989.788 1.816 1.8 2.481 3.036.659 1.206 1.138 2.544 1.436 4.014.323 1.593.349 3.213.078 4.863a19.882 19.882 0 0 1-1.422 4.784 22.81 22.81 0 0 1-2.552 4.392 23.434 23.434 0 0 1-3.245 3.576l-.674-.964a12.744 12.744 0 0 0 1.738-3.222 17.79 17.79 0 0 0 .965-3.735c.186-1.281.247-2.553.182-3.816-.04-1.299-.181-2.546-.424-3.74a15.128 15.128 0 0 0-1.019-3.141 10.48 10.48 0 0 0-1.755-2.753 6.347 6.347 0 0 0-2.514-1.786c-.976-.408-2.076-.488-3.301-.24-1.746.355-3.119 1.128-4.121 2.32-.972 1.185-1.688 2.605-2.149 4.261-.431 1.65-.653 3.465-.666 5.445a53.44 53.44 0 0 0 .283 5.873c.226 1.9.497 3.71.814 5.43l.876 4.32.839 4.134a187.7 187.7 0 0 0 .884 4.125 97.285 97.285 0 0 0 6.477-1.553c2.229-.643 4.292-1.476 6.19-2.499l.589.55Z" fill="#5A62BD"/><rect x="168.129" y="20.889" width="91" height="91" rx="21.5" transform="rotate(14.88 168.129 20.889)" stroke="#5A62BD" stroke-width="5"/><path d="m188.147 49.442-11.952 44.984-5.448-1.447L182.7 47.994l5.447 1.448Zm.815 48.377-5.711-1.518 28.47-40.596 5.624 1.495 4.565 49.373-5.711-1.517-3.381-41.44-.352-.094-23.504 34.297Zm6.778-17.012 23.019 6.116-1.284 4.832-23.019-6.116 1.284-4.832Z" fill="#5A62BD"/></svg>